<?xml version="1.0" encoding="UTF-8" standalone="no"?>
<svg
   id="Layer_1"
   data-name="Layer 1"
   viewBox="0 0 500.00001 499.99998"
   version="1.1"
   sodipodi:docname="logo.svg"
   width="500"
   height="500"
   inkscape:version="1.4 (e7c3feb100, 2024-10-09)"
   xmlns:inkscape="http://www.inkscape.org/namespaces/inkscape"
   xmlns:sodipodi="http://sodipodi.sourceforge.net/DTD/sodipodi-0.dtd"
   xmlns="http://www.w3.org/2000/svg"
   xmlns:svg="http://www.w3.org/2000/svg">
  <sodipodi:namedview
     id="namedview1"
     pagecolor="#ffffff"
     bordercolor="#000000"
     borderopacity="0.25"
     inkscape:showpageshadow="2"
     inkscape:pageopacity="0.0"
     inkscape:pagecheckerboard="0"
     inkscape:deskcolor="#d1d1d1"
     inkscape:zoom="1.311047"
     inkscape:cx="-8.3902408"
     inkscape:cy="219.67176"
     inkscape:window-width="1908"
     inkscape:window-height="1032"
     inkscape:window-x="0"
     inkscape:window-y="0"
     inkscape:window-maximized="1"
     inkscape:current-layer="Layer_1" />
  <defs
     id="defs1">
    <style
       id="style1">.cls-1{fill:#f1f8f0;}</style>
  </defs>
  <rect
     style="fill:#11111b;fill-opacity:1"
     id="rect1"
     width="500"
     height="500"
     x="0"
     y="-500"
     transform="scale(1,-1)" />
  <path
     class="cls-1"
     d="m 356.48181,369.30912 a 149.67024,149.67024 0 0 0 43.80895,-105.86129 3.102617,3.102617 0 0 0 -3.10262,-3.10261 3.102617,3.102617 0 0 0 -3.10261,3.10261 143.58911,143.58911 0 0 1 -40.08581,99.28375 L 305.22658,314.2687 a 74.773069,74.773069 0 0 0 19.98085,-50.82087 76.758744,76.758744 0 0 0 -2.10978,-17.49876 135.52231,135.52231 0 0 0 64.90675,-115.29324 3.102617,3.102617 0 0 0 -3.10262,-3.10262 3.102617,3.102617 0 0 0 -3.10262,3.10262 129.06887,129.06887 0 0 1 -60.50103,109.02596 75.207435,75.207435 0 0 0 -68.25757,-51.31729 V 72.512789 a 3.102617,3.102617 0 1 0 -6.20523,0 V 188.3645 a 75.207435,75.207435 0 0 0 -68.25758,51.31729 129.06887,129.06887 0 0 1 -60.50103,-109.02596 3.102617,3.102617 0 0 0 -3.10262,-3.10262 3.102617,3.102617 0 0 0 -3.10261,3.10262 135.52231,135.52231 0 0 0 65.03085,115.29324 76.758744,76.758744 0 0 0 -2.10978,17.49876 74.773069,74.773069 0 0 0 19.98085,50.82087 l -48.71108,48.71109 a 143.40296,143.40296 0 0 1 -40.14787,-99.28375 3.102617,3.102617 0 0 0 -3.10261,-3.10261 3.102617,3.102617 0 0 0 -3.102621,3.10261 149.91845,149.91845 0 0 0 43.808951,105.67514 v 0 c 0,0 0,0 0.31026,0 a 150.10461,150.10461 0 0 0 211.84669,0 1.3030991,1.3030991 0 0 0 0.80668,-0.0621 z M 246.89738,338.28295 v 69.12631 A 143.65117,143.65117 0 0 1 150.71625,367.3855 l 48.71109,-48.71108 a 75.083331,75.083331 0 0 0 47.47004,19.79469 z m 6.20523,0 a 75.083331,75.083331 0 0 0 47.7803,-19.79469 l 48.71109,48.71109 a 143.65117,143.65117 0 0 1 -96.49139,40.20991 z M 250,194.44563 A 69.002201,69.002201 0 1 1 180.99779,263.44783 69.064254,69.064254 0 0 1 250,194.44563 Z"
     id="path1"
     style="fill:#cba6f7;fill-opacity:1;stroke-width:6.20523" />
</svg>
